<?xml version="1.0" encoding="utf-8"?>
<!-- Generator: Adobe Illustrator 17.0.0, SVG Export Plug-In . SVG Version: 6.00 Build 0)  -->
<!DOCTYPE svg PUBLIC "-//W3C//DTD SVG 1.1//EN" "http://www.w3.org/Graphics/SVG/1.1/DTD/svg11.dtd">
<svg version="1.1" id="Layer_1" xmlns="http://www.w3.org/2000/svg" xmlns:xlink="http://www.w3.org/1999/xlink" x="0px" y="0px"
	 width="540.476px" height="467.857px" viewBox="0 0 540.476 467.857" enable-background="new 0 0 540.476 467.857"
	 xml:space="preserve">
<g>
	<g>
		<g>
			<path fill="#FFFFFF" d="M389.09,120.089c-1.931,1.62-3.772,2.984-5.406,4.086c2.297,8.897,3.547,18.212,3.547,27.819
				c0,15.897-3.369,31.014-9.394,44.71c-1.033,2.108-2.282,3.906-3.674,5.452c-7.743,0.962-10.928,1.552-20.171,6.583
				c-2.781,1.514-5.378,2.051-7.695,2.068c-1.561-0.087-2.93-0.268-4.152-0.539c-3.455-0.945-5.652-2.767-5.864-2.951
				c-2.503-2.415-3.977-6.167-5.708-11.614c-0.822-3.005-1.005-6.573,1.078-9.297l-0.016-0.003c0.093-0.12,0.171-0.227,0.262-0.345
				c0.045-0.055,0.081-0.115,0.125-0.171c3.144-4.091,6.255-7.347,7.609-9.82c5.127-8.799-1.619-11.179-1.64-11.186
				c-2.917-0.895-6.354-1.942-6.354-1.942c-0.074-0.02-0.146-0.027-0.22-0.046l-0.001,0l-0.003,0
				c-8.837-2.198-14.89,3.736-14.89,3.736l-0.678,0.626c-2.037,2.026-5.358,5.31-7.278,7.364c-0.359,0.371-0.421,0.46-0.799,0.794
				l-0.317,0.274c-0.244,0.22-0.489,0.401-0.733,0.603c-0.068,0.055-0.133,0.113-0.202,0.167c-3.026,2.443-7.209,3.452-10.402,3.835
				c-0.592,0.127-1.191,0.233-1.802,0.301c-0.823,0.117-1.658,0.176-2.488,0.176c-3.281,0-6.543-0.936-9.431-2.708
				c-3.645-2.237-6.321-5.551-7.744-9.586c-1.447-4.097-1.433-8.364,0.043-12.335c5.296-14.491,8.645-31.48,9.939-50.455
				c-0.008-0.155-0.014-0.311-0.018-0.468l-0.517-34.82c-0.01-0.601,0.022-1.203,0.093-1.8c0.129-5.554,0.949-10.967,2.44-16.102
				c1.418-4.923,3.546-9.727,6.319-14.256c2.012-3.279,4.288-6.299,6.774-9.049c-2.028-0.375-5.066-0.942-5.842-1.056
				c-5.945-0.878-12.019-1.355-18.204-1.355c-51.595,0-95.991,31.373-115.141,76.04c-6.476,15.106-10.074,31.727-10.074,49.176
				c0,69.043,56.171,125.214,125.215,125.214c12.8,0,25.152-1.939,36.791-5.524c51.145-15.753,88.424-63.446,88.424-119.69
				c0-12.732-1.932-25.016-5.482-36.599C393.281,117.198,391.154,118.749,389.09,120.089z M320.449,247.725
				c-0.213,0.319-0.431,0.661-0.662,1.052c-0.601,0.911-1.26,1.818-1.998,2.716c-4.881,5.439-13.078,8.138-17.461,9.252
				c-7.934,1.813-16.176,2.803-24.653,2.803c-61.513,0-111.555-50.043-111.555-111.554c0-7.474,0.768-14.767,2.183-21.831
				c2.415,2.607,4.689,5.564,6.778,8.878c4.94,7.97,4.619,14.643,4.619,14.643c-0.307,1.244-0.467,3.044,0.37,4.951
				c0.862,1.766,3.265,3.087,3.265,3.087l0.779,0.548c7.49,4.648,12.196,10.92,17.005,14.399c1.174,0.848,2.415,1.071,3.525,1.023
				c0.115-0.007,0.255-0.019,0.436-0.042h0c1.216-0.155,3.66-0.758,3.931-3.064c-0.017-2.138-2.6-5.394-2.6-5.394l0.005-0.015
				c-9.431-12.454-15.263-29.331-16.811-37.329c-0.064-0.543-0.194-2.743,1.711-3.45c0.451-0.114,0.987-0.177,1.664-0.143
				c0.961,0.211,2.036,0.82,3.209,2.173c0,0,0.004-0.003,0.008,0c1.073,0.97,14.173,18.176,22.387,29.568
				c0.341,0.488,4.748,6.866,6.338,12.887c0.401,1.955,0.804,4.262,0.99,6.448c0.005,0.054,0.023,0.107,0.026,0.161
				c-0.003,0.012-0.009,0.025-0.012,0.037c0.032,0.419,0.075,0.825,0.084,1.264c0,0-0.01,3.566,1.306,6.987
				c0.048,0.073,0.081,0.143,0.131,0.216c0.641,1.624,1.558,3.317,2.773,5.005c0.38,0.521,0.783,1.04,1.233,1.563
				c0.248,0.291,0.481,0.584,0.75,0.872c0.819,0.869,1.751,1.729,2.795,2.573c2.021,1.643,4.444,3.207,7.437,4.594
				c0.517,0.244,1.033,0.509,1.55,0.733c0.012,0.006,0.023,0.012,0.036,0.017c0.023,0.01,0.038,0.012,0.061,0.022
				c19.334,8.331,35.315-2.391,50.811-2.924c9.86-0.338,22.086,1.434,29.731,18.895
				C322.672,219.512,328.768,233.944,320.449,247.725z"/>
		</g>
		<path fill="#FFFFFF" d="M163.547,195.954"/>
		<g>
			<g>
				<path fill="#FFFFFF" d="M150.303,426.286h3.37l5.48,8.516l5.48-8.516h3.37v18.009h-3.165V431.38l-5.686,8.49h-0.103
					l-5.634-8.439v12.863h-3.113V426.286z"/>
				<path fill="#FFFFFF" d="M175.21,426.286h13.352v2.83h-10.188v4.683h9.031v2.83h-9.031v4.836h10.316v2.83H175.21V426.286z
					 M183.546,421.065l2.83,1.234l-3.293,2.495h-2.418L183.546,421.065z"/>
				<path fill="#FFFFFF" d="M200.22,435.137l-6.303-8.851h3.73l4.477,6.458l4.502-6.458h3.627l-6.276,8.799l6.534,9.21h-3.73
					l-4.733-6.817l-4.76,6.817h-3.627L200.22,435.137z"/>
				<path fill="#FFFFFF" d="M216.534,426.286h3.166v18.009h-3.166V426.286z"/>
				<path fill="#FFFFFF" d="M226.287,435.342v-0.05c0-5.12,3.835-9.314,9.287-9.314c3.32,0,5.327,1.159,7.05,2.805l-2.033,2.341
					c-1.44-1.338-2.983-2.238-5.042-2.238c-3.447,0-5.942,2.83-5.942,6.355v0.052c0,3.525,2.495,6.405,5.942,6.405
					c2.213,0,3.627-0.9,5.171-2.341l2.032,2.057c-1.878,1.956-3.935,3.191-7.305,3.191
					C230.198,444.604,226.287,440.513,226.287,435.342z"/>
				<path fill="#FFFFFF" d="M247.335,435.342v-0.05c0-5.068,3.911-9.314,9.442-9.314c5.531,0,9.391,4.194,9.391,9.262v0.052
					c0,5.067-3.91,9.312-9.442,9.312C251.195,444.604,247.335,440.411,247.335,435.342z M262.849,435.342v-0.05
					c0-3.499-2.547-6.406-6.123-6.406c-3.576,0-6.071,2.856-6.071,6.355v0.052c0,3.498,2.547,6.405,6.122,6.405
					C260.353,441.697,262.849,438.841,262.849,435.342z"/>
				<path fill="#FFFFFF" d="M287.294,429.22h-5.711v-2.934h14.613v2.934h-5.711v15.075h-3.191V429.22z"/>
				<path fill="#FFFFFF" d="M300.341,435.342v-0.05c0-5.068,3.911-9.314,9.442-9.314c5.531,0,9.391,4.194,9.391,9.262v0.052
					c0,5.067-3.91,9.312-9.441,9.312C304.201,444.604,300.341,440.411,300.341,435.342z M315.855,435.342v-0.05
					c0-3.499-2.547-6.406-6.123-6.406c-3.576,0-6.072,2.856-6.072,6.355v0.052c0,3.498,2.547,6.405,6.122,6.405
					C313.359,441.697,315.855,438.841,315.855,435.342z"/>
				<path fill="#FFFFFF" d="M325.301,436.655v-10.368h3.164v10.239c0,3.345,1.724,5.146,4.554,5.146
					c2.805,0,4.529-1.698,4.529-5.017v-10.368h3.164v10.214c0,5.377-3.035,8.078-7.743,8.078
					C328.285,444.579,325.301,441.878,325.301,436.655z"/>
				<path fill="#FFFFFF" d="M347.635,426.286h8.026c2.264,0,4.039,0.669,5.198,1.801c0.951,0.979,1.492,2.316,1.492,3.885v0.052
					c0,2.959-1.775,4.733-4.297,5.454l4.863,6.817h-3.73l-4.425-6.277h-3.962v6.277h-3.164V426.286z M355.43,435.214
					c2.263,0,3.705-1.184,3.705-3.011v-0.05c0-1.93-1.389-2.985-3.73-2.985h-4.606v6.046H355.43z"/>
				<path fill="#FFFFFF" d="M367.603,441.672l1.903-2.264c1.724,1.492,3.447,2.341,5.686,2.341c1.955,0,3.191-0.9,3.191-2.263
					v-0.052c0-1.286-0.721-1.98-4.066-2.753c-3.833-0.926-5.994-2.057-5.994-5.377v-0.05c0-3.088,2.573-5.223,6.15-5.223
					c2.624,0,4.707,0.798,6.534,2.264l-1.698,2.392c-1.62-1.209-3.241-1.853-4.888-1.853c-1.853,0-2.932,0.952-2.932,2.136v0.052
					c0,1.389,0.823,2.006,4.27,2.829c3.808,0.927,5.788,2.29,5.788,5.274v0.052c0,3.37-2.649,5.376-6.431,5.376
					C372.362,444.552,369.765,443.601,367.603,441.672z"/>
			</g>
			<g>
				<path fill="#FFFFFF" d="M384.085,320.136c1.25,1.152,2.935,1.986,5.053,2.5c2.169,0.53,4.339,0.593,6.516,0.192
					c2.176-0.398,4.207-1.218,6.095-2.454c1.888-1.236,3.538-2.843,4.95-4.825s2.438-4.29,3.079-6.921
					c0.49-2.016,0.615-3.872,0.371-5.572c-0.242-1.7-0.747-3.218-1.517-4.553c-0.768-1.335-1.773-2.442-3.007-3.316
					c-1.237-0.876-2.603-1.497-4.1-1.861c-2.531-0.615-4.91-0.729-7.137-0.342c-2.229,0.39-4.22,1.161-5.981,2.32
					c-1.758,1.157-3.257,2.652-4.496,4.483c-1.24,1.832-2.136,3.884-2.688,6.155c-0.414,1.703-0.633,3.444-0.655,5.215
					c-0.022,1.773,0.247,3.423,0.804,4.954C381.93,317.642,382.834,318.984,384.085,320.136z"/>
				<path fill="#FFFFFF" d="M525.035,401.723c-0.352-0.624-0.897-1.087-1.637-1.384c-1.234-0.492-2.303-0.648-3.205-0.465
					c-0.904,0.184-1.671,0.635-2.302,1.353c-1.292,1.374-2.947,3.002-4.959,4.886c-2.014,1.886-4.219,3.823-6.616,5.812
					c-2.4,1.99-4.896,3.938-7.49,5.846c-2.597,1.911-5.101,3.557-7.513,4.938c-2.414,1.382-4.636,2.397-6.669,3.043
					c-2.033,0.646-3.692,0.713-4.974,0.201c-1.135-0.455-1.902-1.075-2.301-1.866c-0.401-0.789-0.562-1.71-0.483-2.769
					c0.08-1.053,0.346-2.221,0.8-3.499c0.453-1.28,0.966-2.633,1.539-4.064c0.986-2.468,1.782-4.424,2.39-5.869
					c0.606-1.445,1.137-2.666,1.592-3.656c0.453-0.992,0.871-1.928,1.251-2.807c0.378-0.878,0.846-2.007,1.397-3.391
					c0.848-2.121,1.045-4.219,0.585-6.29c-0.46-2.073-1.349-4.003-2.664-5.789c-1.32-1.784-2.926-3.386-4.82-4.803
					c-1.896-1.415-3.835-2.577-5.818-3.485c3.58-10.817-1.363-18.919-14.835-24.308c-5.182-2.07-10.496-2.665-15.944-1.781
					c-5.45,0.884-10.654,2.953-15.617,6.204c-4.963,3.253-9.543,7.548-13.737,12.881c-3.352,4.266-6.207,9.01-8.608,14.188
					c-1.852,1.755-3.661,3.34-5.425,4.735c-2.17,1.715-4.226,3.033-6.173,3.953c-1.948,0.921-3.593,1.217-4.934,0.89
					c-1.188-0.288-2.035-0.795-2.542-1.521c-0.51-0.723-0.797-1.616-0.869-2.671c-0.072-1.056,0.027-2.249,0.298-3.58
					c0.268-1.328,0.586-2.742,0.95-4.239c0.628-2.581,1.356-5.523,2.187-8.82c0.831-3.299,1.664-6.555,2.502-9.772
					c0.836-3.214,1.599-6.173,2.284-8.878c0.687-2.705,1.206-4.78,1.557-6.226c0.377-1.55,0.322-3.012-0.162-4.389
					c-0.485-1.375-1.229-2.651-2.227-3.824c-1-1.172-2.174-2.253-3.521-3.236c-1.347-0.985-2.7-1.833-4.057-2.548
					c-1.357-0.711-2.651-1.302-3.878-1.763c-1.228-0.463-2.202-0.782-2.925-0.959c-1.19-0.29-2.284-0.172-3.285,0.349
					c-1.004,0.522-1.916,1.298-2.742,2.326c-0.825,1.03-1.566,2.273-2.219,3.728c-0.656,1.454-1.255,2.962-1.799,4.525
					c-0.544,1.564-1.022,3.129-1.43,4.697c-0.41,1.569-0.772,3.001-1.086,4.29l-1.941,7.973c-0.994,1.455-2.031,2.933-3.154,4.459
					c-1.846,2.511-3.798,5.005-5.854,7.486c-2.057,2.483-4.075,4.685-6.056,6.612c-1.983,1.93-3.892,3.451-5.736,4.565
					c-1.842,1.115-3.447,1.581-4.817,1.392c-1.159-0.158-2.115-0.918-2.865-2.282c-0.753-1.364-1.332-3.107-1.737-5.229
					c-0.407-2.119-0.676-4.463-0.807-7.03c-0.131-2.565-0.179-5.146-0.146-7.744c0.035-2.596,0.146-5.076,0.335-7.438
					c0.189-2.359,0.397-4.357,0.621-5.989l0.477-3.475c3.172,0.326,5.689,0.55,7.55,0.673c1.861,0.12,3.336,0.122,4.426,0.002
					c1.299-0.09,2.6-0.473,3.9-1.154c1.301-0.68,2.475-1.538,3.532-2.575c1.051-1.035,1.948-2.187,2.685-3.454
					c0.738-1.267,1.192-2.532,1.365-3.796c0.217-1.578-0.044-2.915-0.778-4.008c-0.735-1.094-1.805-2.003-3.206-2.734
					c-1.404-0.727-3.039-1.315-4.908-1.759c-1.87-0.443-3.833-0.806-5.887-1.088c-0.579-0.078-1.278-0.174-2.092-0.287
					c-0.817-0.11-1.756-0.212-2.816-0.305c0.567-2.176,1.085-3.996,1.554-5.46c0.467-1.465,0.908-2.813,1.319-4.045
					c0.408-1.229,0.782-2.478,1.116-3.747c0.336-1.269,0.63-2.823,0.882-4.667c0.325-2.37,0.267-4.402-0.17-6.098
					c-0.439-1.698-1.106-3.09-2.001-4.177c-0.897-1.089-1.963-1.933-3.195-2.53c-1.234-0.599-2.508-0.988-3.822-1.169
					c-2.213-0.304-4.49,0.257-6.829,1.679c-2.342,1.423-4.579,3.558-6.712,6.403c-2.133,2.845-4.099,6.318-5.893,10.417
					c-1.795,4.098-3.311,8.693-4.543,13.78c-3.416,0.659-6.313,1.736-8.692,3.235c-2.377,1.498-3.742,3.537-4.097,6.116
					c-0.288,2.107,0.412,3.651,2.101,4.634c1.689,0.983,4.26,1.791,7.713,2.426l-1.287,9.398c-0.005,0.037-0.008,0.075-0.013,0.112
					c-0.832,1.757-1.704,3.55-2.665,5.418c-1.394,2.716-2.897,5.431-4.504,8.144c-1.609,2.715-3.225,5.149-4.852,7.304
					c-1.625,2.158-3.246,3.898-4.859,5.231c-1.615,1.332-3.113,1.988-4.494,1.966c-1.7-0.024-3.301-0.513-4.801-1.465
					c-1.503-0.95-2.957-2.236-4.369-3.851c-1.411-1.615-2.808-3.496-4.183-5.642c-1.379-2.146-2.765-4.426-4.165-6.838
					c2.707-3.467,5.23-6.912,7.566-10.332c2.334-3.42,4.363-6.673,6.081-9.757c1.721-3.083,3.079-5.947,4.073-8.591
					c0.997-2.643,1.509-4.946,1.537-6.913c0.03-2.019-0.425-3.596-1.366-4.725c-0.939-1.131-2.366-1.71-4.279-1.738
					c-1.435-0.02-2.758,0.546-3.972,1.696c-1.212,1.152-2.149,2.573-2.813,4.264c-1.215,3.12-3.139,6.599-5.773,10.439
					c-2.636,3.842-5.684,7.865-9.144,12.064c-1.821-2.788-3.735-5.476-5.742-8.056c-2.01-2.582-4.195-4.872-6.557-6.874
					c-2.362-2-4.919-3.591-7.664-4.777c-2.747-1.183-5.741-1.797-8.983-1.845c-2.337-0.034-4.548,0.371-6.634,1.217
					c-2.086,0.846-3.896,1.977-5.433,3.388c-1.534,1.413-2.754,3.07-3.659,4.969c-0.906,1.902-1.372,3.886-1.404,5.961
					c-0.022,1.488,0.199,2.727,0.664,3.716c0.064,0.136,0.145,0.238,0.213,0.366c-0.31,1.135-0.658,2.341-1.058,3.64
					c-0.883,2.85-1.995,5.845-3.342,8.98c-1.347,3.138-2.922,6.283-4.723,9.435c-1.801,3.154-3.871,6.052-6.208,8.695
					c-2.335,2.644-4.948,4.899-7.833,6.767c-2.887,1.867-6.063,3.066-9.529,3.598c-2.786,0.426-5.269,0.364-7.448-0.188
					c-2.182-0.554-4.108-1.453-5.778-2.703c-1.672-1.248-3.092-2.804-4.267-4.67c-1.172-1.861-2.084-3.872-2.739-6.03
					c5.787-1.532,10.62-3.591,14.498-6.176c3.878-2.582,6.932-5.366,9.164-8.342c2.232-2.975,3.739-5.949,4.52-8.919
					c0.781-2.97,0.99-5.637,0.628-8c-0.37-2.415-1.21-4.639-2.516-6.672c-1.307-2.03-2.927-3.746-4.86-5.143
					c-1.935-1.395-4.123-2.419-6.56-3.067c-2.439-0.646-4.972-0.769-7.598-0.366c-4.519,0.692-8.613,1.953-12.283,3.778
					c-3.673,1.827-6.91,4.044-9.708,6.651c-2.8,2.607-5.171,5.551-7.113,8.833c-0.794,1.341-1.5,2.717-2.156,4.113
					c-0.043,0.049-0.097,0.093-0.137,0.143c-0.484,0.612-0.756,1.314-0.842,2.093c-0.535,1.31-1.031,2.636-1.449,3.992
					c-1.112,3.612-1.793,7.319-2.045,11.12c-0.179,2.723-0.143,5.396,0.092,8.027c-0.167,0.745-0.321,1.486-0.5,2.236
					c-0.747,3.135-1.595,6.009-2.543,8.622c-0.95,2.615-1.991,4.824-3.125,6.632c-1.134,1.806-2.355,2.929-3.666,3.366
					c-1.261,0.421-2.374,0.359-3.34-0.188c-0.968-0.545-1.812-1.397-2.534-2.557c-0.723-1.159-1.368-2.499-1.93-4.022
					c-0.564-1.52-1.048-3.053-1.451-4.6c-0.406-1.546-0.759-2.983-1.06-4.311c-0.304-1.327-0.581-2.369-0.833-3.126
					c-3.953-11.846-8.641-20.354-14.062-25.52c-5.422-5.166-11.863-6.503-19.324-4.015c-3.731,1.243-6.894,2.846-9.489,4.805
					c-2.596,1.957-4.727,4.182-6.389,6.67c-1.664,2.487-2.94,5.168-3.831,8.042c-0.888,2.874-1.524,5.844-1.9,8.913
					c-0.378,3.066-0.536,6.203-0.476,9.402c0.06,3.204,0.207,6.333,0.443,9.392c-1.211-2.958-2.316-5.684-3.317-8.18
					c-1-2.494-1.837-4.498-2.51-6.012c-0.589-1.261-1.278-2.445-2.068-3.554c-0.79-1.109-1.723-2.016-2.798-2.721
					c-1.076-0.705-2.329-1.142-3.757-1.311c-1.429-0.167-3.077,0.06-4.941,0.683c-2.27,0.756-4.076,1.977-5.419,3.656
					c-1.344,1.683-2.314,3.519-2.91,5.51c-0.596,1.991-0.863,4-0.805,6.025c0.06,2.026,0.334,3.768,0.821,5.231
					c2.792,8.367,5.076,15.338,6.85,20.909c1.775,5.571,3.189,10.099,4.238,13.586c1.052,3.488,1.827,6.1,2.322,7.84
					c0.496,1.739,0.855,2.937,1.073,3.593c0.37,1.108,0.901,1.983,1.589,2.62c0.69,0.64,1.496,1.084,2.42,1.335
					c0.924,0.251,1.916,0.328,2.975,0.226c1.059-0.1,2.142-0.335,3.252-0.705c2.419-0.809,4.465-1.729,6.137-2.763
					c1.672-1.034,3.054-2.14,4.146-3.316c1.092-1.175,1.894-2.423,2.407-3.745c0.512-1.317,0.843-2.676,0.994-4.07l0.126-0.63
					c0.099-1.378,0.12-3.206,0.061-5.484c-0.059-2.276-0.115-4.793-0.167-7.551c-0.051-2.756-0.09-5.683-0.115-8.784
					c-0.026-3.101-0.006-6.189,0.06-9.265c0.067-3.074,0.238-6.046,0.514-8.91c0.275-2.867,0.678-5.437,1.208-7.715
					c0.527-2.277,1.22-4.189,2.078-5.735c0.856-1.546,1.939-2.538,3.251-2.976c1.159-0.386,2.256-0.291,3.29,0.289
					c1.033,0.58,1.992,1.436,2.874,2.57c0.883,1.135,1.676,2.466,2.384,3.997c0.705,1.529,1.303,3.024,1.791,4.485l1.967,5.9
					c2.238,6.705,4.377,12.363,6.421,16.975c2.044,4.614,4.276,8.196,6.697,10.749c2.42,2.555,5.152,4.109,8.195,4.661
					c3.041,0.553,6.68,0.126,10.914-1.287c3.528-1.177,6.6-3.267,9.213-6.268c2.612-3,4.834-6.543,6.665-10.627
					c1.458-3.253,2.678-6.742,3.683-10.448c1.863,3.055,4.19,5.736,7.029,8.006c3.553,2.843,7.925,4.873,13.112,6.094
					c5.188,1.221,11.299,1.292,18.34,0.213c4.886-0.749,9.336-2.413,13.35-4.991c4.012-2.578,7.6-5.735,10.765-9.475
					c3.163-3.738,5.944-7.861,8.346-12.37c2.398-4.507,4.465-9.085,6.2-13.733c1.733-4.649,3.159-9.195,4.28-13.641
					c0.389-1.545,0.733-3.014,1.058-4.449c1.5,0.191,2.94,0.707,4.312,1.579c1.711,1.09,3.377,2.536,4.999,4.339
					c1.62,1.806,3.212,3.901,4.772,6.288c1.557,2.388,3.142,4.898,4.752,7.524c-3.617,3.828-7.112,7.457-10.484,10.888
					c-3.374,3.433-6.354,6.486-8.944,9.158c-2.592,2.672-4.671,4.875-6.238,6.604c-1.566,1.732-2.353,2.837-2.36,3.315
					c-0.024,1.593,0.518,2.797,1.621,3.611c1.105,0.812,2.506,1.232,4.208,1.258c1.593,0.024,3.502-0.495,5.723-1.552
					c2.219-1.057,4.662-2.535,7.321-4.435c2.659-1.902,5.482-4.145,8.469-6.732c2.989-2.587,6.02-5.425,9.094-8.518
					c1.977,2.9,4.025,5.614,6.14,8.143c2.115,2.529,4.409,4.663,6.883,6.399c3.151,2.598,7.01,3.931,11.581,3.996
					c3.612,0.054,7.067-0.851,10.364-2.717c3.296-1.866,6.388-4.344,9.278-7.438c2.888-3.092,5.583-6.64,8.088-10.644
					c1.486-2.375,2.867-4.795,4.195-7.238c0.019,0.625,0.034,1.253,0.065,1.87c0.194,3.862,0.69,7.497,1.482,10.904
					c0.793,3.407,1.961,6.438,3.503,9.091c1.538,2.651,3.505,4.838,5.898,6.562c2.392,1.721,5.326,2.822,8.803,3.298
					c3.685,0.506,7.363-0.009,11.033-1.544c3.671-1.535,7.23-3.729,10.679-6.585c3.447-2.851,6.734-6.183,9.858-9.993
					c1.187-1.448,2.315-2.923,3.44-4.399c-0.342,1.852-0.637,3.61-0.875,5.257c-0.723,4.994-0.739,9.216-0.047,12.665
					c0.69,3.451,2.178,6.22,4.459,8.306c2.281,2.088,5.59,3.658,9.928,4.716c3.613,0.879,7.327,0.743,11.134-0.408
					c3.81-1.151,7.575-2.97,11.298-5.455c2.18-1.454,4.316-3.099,6.419-4.892c0.209,3.425,0.9,6.524,2.13,9.262
					c1.361,3.033,3.226,5.598,5.594,7.69c2.369,2.092,4.886,3.67,7.552,4.735c6.216,2.488,12.235,3.005,18.052,1.554
					c5.817-1.453,11.287-4.931,16.41-10.438c-0.969,3.561-1.537,6.739-1.71,9.533c-0.171,2.794,0.149,5.282,0.964,7.469
					c0.813,2.184,2.159,4.083,4.033,5.69c1.876,1.608,4.343,3.024,7.402,4.248c3.454,1.382,7.148,1.771,11.082,1.168
					c3.932-0.601,7.917-1.871,11.954-3.806c4.035-1.933,8.03-4.373,11.982-7.313c3.952-2.94,7.72-6.029,11.303-9.261
					c3.581-3.234,6.872-6.452,9.871-9.66c3-3.209,5.576-6.07,7.727-8.588c0.197-0.207,0.335-0.409,0.416-0.607
					c0.076-0.198,0.146-0.371,0.205-0.518C525.392,403.083,525.384,402.35,525.035,401.723z M157.778,357.204
					c0.25-2.752,0.784-5.226,1.603-7.424c0.82-2.194,1.949-4.034,3.389-5.52c1.437-1.483,3.209-2.386,5.311-2.71
					c2.152-0.33,3.717-0.032,4.693,0.895c0.976,0.927,1.583,2.177,1.825,3.752c0.33,2.154,0.119,4.27-0.64,6.347
					c-0.756,2.079-1.914,3.992-3.474,5.735c-1.562,1.747-3.44,3.258-5.637,4.534c-2.197,1.279-4.539,2.217-7.029,2.813
					C157.543,362.766,157.527,359.959,157.778,357.204z M462.295,387.711c-1.615,1.961-3.082,4.019-4.404,6.18
					c-0.256,0.356-0.403,0.582-0.442,0.681c-2.034,3.365-4.307,6.221-6.818,8.565c-2.511,2.343-5.028,4.201-7.549,5.568
					c-2.522,1.367-4.941,2.231-7.26,2.59c-2.319,0.361-4.268,0.226-5.847-0.406c-0.988-0.395-1.735-0.993-2.243-1.798
					c-0.508-0.804-0.819-1.745-0.932-2.821c-0.116-1.075-0.063-2.243,0.155-3.501c0.216-1.258,0.582-2.529,1.096-3.811
					c1.419-3.553,3.274-6.977,5.565-10.268c2.288-3.291,4.937-6.053,7.948-8.283c3.008-2.232,6.301-3.705,9.88-4.42
					c3.578-0.717,7.366-0.275,11.363,1.323c0.887,0.357,1.559,0.753,2.012,1.191c0.455,0.44,0.833,0.892,1.135,1.354
					c0.299,0.465,0.552,0.908,0.755,1.333c0.203,0.423,0.495,0.801,0.879,1.124C465.673,383.951,463.907,385.751,462.295,387.711z"
					/>
			</g>
		</g>
		<g>
			<path fill="#FFFFFF" d="M402.675,105.601l-0.001-0.075c-0.048-7.276,5.808-13.441,13.235-13.49
				c7.505-0.049,13.364,5.961,13.412,13.236l0,0.078c0.048,7.274-5.807,13.439-13.235,13.488
				C408.583,118.888,402.723,112.877,402.675,105.601z M427.791,105.358l-0.001-0.077c-0.043-6.509-5.132-11.835-11.871-11.791
				c-6.662,0.045-11.757,5.516-11.714,12.025l0,0.076c0.043,6.509,5.133,11.836,11.871,11.791
				C422.74,117.337,427.834,111.866,427.791,105.358z M410.745,98.426l6.126-0.041c2.987-0.02,5.217,1.421,5.236,4.254
				c0.015,2.221-1.279,3.608-3.112,4.156l3.634,5.107l-3.141,0.021l-3.248-4.649l-2.833,0.019l0.031,4.671l-2.603,0.017
				L410.745,98.426z M416.685,105.126c1.761-0.012,2.751-0.938,2.742-2.239c-0.01-1.456-1.01-2.214-2.772-2.203l-3.293,0.023
				l0.029,4.442L416.685,105.126z"/>
		</g>
		<path fill="#FFFFFF" d="M398.952,60.109c-3.628-13.999-11.79-24.974-24.259-32.618c-7.765-4.759-15.949-7.452-24.431-8.058
			c-5.066-0.362-10.237,0.02-15.49,1.152c-0.198,0.043-0.39,0.106-0.572,0.187c-5.613,1.344-10.77,3.393-15.383,6.118
			c-3.104,1.917-6.013,4.193-8.61,6.727c-3.094,2.908-5.855,6.327-8.208,10.165c-2.274,3.713-4.017,7.643-5.178,11.673
			c-1.295,4.459-1.979,9.188-2.034,14.065c-0.057,0.235-0.083,0.476-0.08,0.72l0.517,34.755c0.004,0.177,0.021,0.351,0.055,0.522
			c-1.316,20.331-4.897,38.61-10.639,54.322c-0.608,1.636-0.602,3.354,0.017,5.106c0.613,1.74,1.717,3.108,3.282,4.069
			c1.237,0.758,2.543,1.142,3.883,1.142c0.383,0,0.769-0.031,1.155-0.096c1.748-0.154,3.332-0.919,4.622-2.253
			c8.057-8.618,17.783-16.841,28.968-24.585c4.829-3.343,9.902-6.607,15.277-9.758l30.814-15.115c0,0,9.559-4.363,17.418-14.459
			c1.032-1.375,2.032-2.806,2.956-4.312c2.333-3.807,4.181-7.744,5.522-11.792c1.052-3.553,1.693-7.231,1.898-10.864
			C400.893,71.433,400.389,65.781,398.952,60.109z M347.557,90.021c-10.195,0.227-18.64-7.654-18.861-17.603
			s7.863-18.198,18.058-18.426c10.195-0.227,18.64,7.654,18.861,17.603C365.836,81.544,357.752,89.793,347.557,90.021z"/>
	</g>
</g>
</svg>
